<svg xmlns="http://www.w3.org/2000/svg" width="22" height="22" viewBox="0 0 22 22">
  <g id="Icon_feather-settings" data-name="Icon feather-settings" transform="translate(22.5 -0.5) rotate(90)">
    <path id="Path_1859" data-name="Path 1859" d="M20.727,17.114A3.614,3.614,0,1,1,17.114,13.5,3.614,3.614,0,0,1,20.727,17.114Z" transform="translate(-5.614 -5.614)" fill="none" stroke="#f21c47" stroke-linecap="round" stroke-linejoin="round" stroke-width="2"/>
    <path id="Path_1860" data-name="Path 1860" d="M18.227,14.227a1.5,1.5,0,0,0,.3,1.655l.055.055a1.819,1.819,0,1,1-2.573,2.573l-.055-.055a1.512,1.512,0,0,0-2.564,1.073v.155a1.818,1.818,0,1,1-3.636,0V19.6a1.5,1.5,0,0,0-.982-1.373,1.5,1.5,0,0,0-1.655.3l-.055.055a1.819,1.819,0,1,1-2.573-2.573l.055-.055a1.512,1.512,0,0,0-1.073-2.564H3.318a1.818,1.818,0,1,1,0-3.636H3.4a1.5,1.5,0,0,0,1.373-.982,1.5,1.5,0,0,0-.3-1.655l-.055-.055A1.819,1.819,0,1,1,6.991,4.491l.055.055a1.5,1.5,0,0,0,1.655.3h.073a1.5,1.5,0,0,0,.909-1.373V3.318a1.818,1.818,0,0,1,3.636,0V3.4a1.512,1.512,0,0,0,2.564,1.073l.055-.055a1.819,1.819,0,1,1,2.573,2.573l-.055.055a1.5,1.5,0,0,0-.3,1.655v.073a1.5,1.5,0,0,0,1.373.909h.155a1.818,1.818,0,1,1,0,3.636H19.6a1.5,1.5,0,0,0-1.373.909Z" transform="translate(0 0)" fill="none" stroke="#f21c47" stroke-linecap="round" stroke-linejoin="round" stroke-width="2"/>
  </g>
</svg>
