<svg xmlns="http://www.w3.org/2000/svg" width="24.945" height="20.773" viewBox="0 0 24.945 20.773">
  <g id="Icon_feather-camera" data-name="Icon feather-camera" transform="translate(1 1)">
    <path id="Path_4164" data-name="Path 4164" d="M24.445,21.188a2.086,2.086,0,0,1-2.086,2.086H3.586A2.086,2.086,0,0,1,1.5,21.188V9.715A2.086,2.086,0,0,1,3.586,7.629H7.758L9.844,4.5H16.1l2.086,3.129h4.172a2.086,2.086,0,0,1,2.086,2.086Z" transform="translate(-1.5 -4.5)" fill="none" stroke="#fff" stroke-linecap="round" stroke-linejoin="round" stroke-width="2"/>
    <path id="Path_4165" data-name="Path 4165" d="M20.344,17.672A4.172,4.172,0,1,1,16.172,13.5a4.172,4.172,0,0,1,4.172,4.172Z" transform="translate(-4.699 -7.242)" fill="none" stroke="#fff" stroke-linecap="round" stroke-linejoin="round" stroke-width="2"/>
  </g>
</svg>
