<svg xmlns="http://www.w3.org/2000/svg" width="47.25" height="29.933" viewBox="0 0 47.25 29.933">
  <g id="Logo" transform="translate(0 0)">
    <g id="Layer_1" data-name="Layer 1" transform="translate(0 0)">
      <path id="Path_1851" data-name="Path 1851" d="M78.1,47.52l14.573,4.3-9.92,11.376Z" transform="translate(-71.95 -43.778)" fill="#380e79"/>
      <path id="Path_1852" data-name="Path 1852" d="M8,53.755H0L6.15,47.52Z" transform="translate(0 -43.778)" fill="#f21c47"/>
      <path id="Path_1853" data-name="Path 1853" d="M183.68,181.068l16.274,8.5a1.8,1.8,0,0,0,2.415-2.489l-7.4-13.567Z" transform="translate(-169.215 -159.846)" fill="#380e79"/>
      <path id="Path_1854" data-name="Path 1854" d="M158.626,0,137.391,21.533a8.746,8.746,0,0,1-10.857,1.449L121.819,19.5a1.914,1.914,0,0,1-.453-2.893l13.1-13.29A11.142,11.142,0,0,1,142.4,0Z" transform="translate(-111.376 0)" fill="#f21c47"/>
    </g>
  </g>
</svg>
