<svg xmlns="http://www.w3.org/2000/svg" width="55.745" height="52.696" viewBox="0 0 55.745 52.696">
  <g id="Group_3522" data-name="Group 3522" transform="translate(18975.54 20700)" opacity="0.4">
    <path id="Path_4410" data-name="Path 4410" d="M159.246,15.676h-9.453a2.964,2.964,0,0,0-2.96,2.96v10.88H143.3a8.114,8.114,0,0,0,.222-2.537,23.762,23.762,0,0,0-2.234-10.38,11.136,11.136,0,0,0-3.46-4.17,7.584,7.584,0,0,0,2.024-5.364,6.929,6.929,0,1,0-13.856,0,.82.82,0,0,0,.819.819h.554a5.6,5.6,0,0,0-.077.941,5.67,5.67,0,0,0,4.555,5.554,13.788,13.788,0,0,0-.407,3.55L129.4,19.681l-4.957.4-5.715-1.891a1.737,1.737,0,0,0-1.635,0,1.455,1.455,0,0,0-.507,1.219v4.251a.816.816,0,0,0,.816.816h.972l-1.49,5.154a.816.816,0,0,0,1.567.452l1.624-5.606h2.32c-2.888,8.806-1.239,14.683,1.294,20.631h-1.468l-6.115-6.836,1.294-4.466a.817.817,0,0,0-1.569-.455L114.6,37.623a8.213,8.213,0,0,0-8.116,6.368.814.814,0,0,0,.613.977l1.158.267a6.249,6.249,0,0,0,12.076,2.779l.914.213a1.076,1.076,0,0,0,.791-.045.956.956,0,0,0,.459-.626,8.14,8.14,0,0,0,.131-.814H139.7a6.959,6.959,0,0,0,13.772,0h.776a1.107,1.107,0,0,0,.846-.305,1.05,1.05,0,0,0,.289-.8,9.229,9.229,0,0,0-.335-2.212c.651-3.948.025-6.352-.9-8.234a2.155,2.155,0,0,0,.975-1.8V31.149h4.125a2.962,2.962,0,0,0,2.958-2.96V18.636a2.961,2.961,0,0,0-2.958-2.96M116.922,49.747a4.582,4.582,0,0,1-3.483.588h0a4.627,4.627,0,0,1-3.575-4.729l8.856,2.04a4.567,4.567,0,0,1-1.8,2.1m4.084-3.252-12.7-2.922a6.573,6.573,0,0,1,6.5-4.308l6.223,6.956c0,.093-.014.183-.023.274m12.336-14.229a7.252,7.252,0,0,0-.237,2.463v3.08h-2.99V33.582c0-4.778,2.607-5.631,3.779-5.771H141.9a3.461,3.461,0,0,1-.742,2.345,3.789,3.789,0,0,1-2.834.848l-2.931,0a1.967,1.967,0,0,0-2.051,1.257m-.237,7.178v1.949h-5.823a2.331,2.331,0,0,1,.563-1.4,2.008,2.008,0,0,1,1.452-.552Zm8.758-13.265h-7.426a30.765,30.765,0,0,1-.782-3.021l2.257-1.468a3.365,3.365,0,0,0,1.759-3.1,2.885,2.885,0,0,0-1.8-2.363,2.947,2.947,0,0,0-2.741.3,9.668,9.668,0,0,1,.393-2.071,5.8,5.8,0,0,0,1.033-.2,6.757,6.757,0,0,0,1.906-.755c1.574.938,5.032,3.987,5.4,12.682M127.688,6.248a5.287,5.287,0,0,1,10.529.816,5.544,5.544,0,0,1-3.051,5.265v-4.3a1.625,1.625,0,0,0-1.642-1.78c-.025,0-.048,0-.075,0Zm1.235,2.576a4.04,4.04,0,0,1,.109-.941h4.38c.05,0,.086.011.113.016a.966.966,0,0,1,.007.133v4.776a3.875,3.875,0,0,1-.583.043h-.007a4.029,4.029,0,0,1-4.019-4.028m-1.058,12.621,1.934-.158a.8.8,0,0,0,.466-.192l3.492-3.005a1.633,1.633,0,0,1,1.049-.439,1.255,1.255,0,0,1,1.242,1.095,1.8,1.8,0,0,1-1.024,1.576l-3.89,2.524h-3.268Zm-3.453.278,1.818-.147v1.269h-2.112c-.274,0-.339-.228-.346-.421a.647.647,0,0,1,.64-.7m-1.931-.563a2.389,2.389,0,0,0-.341,1.334,2.419,2.419,0,0,0,.041.344l0,.007h-3.955v-3.1l4.261,1.409Zm1.642,3.318h7.252a.821.821,0,0,0,.446-.131l.369-.24c.179.785.38,1.549.6,2.27-1.667.493-4.308,2.081-4.308,7.2v4.31a3.413,3.413,0,0,0-1.82.975,3.985,3.985,0,0,0-1.02,2.526H124c-1.66-4.783-2.291-9.876.127-16.915m1.348,20.629c-.3-.694-.595-1.386-.868-2.081h8.48c1.1,0,1.655-.5,1.655-1.486v-6h6.445a.816.816,0,1,0,0-1.633h-6.438a3.6,3.6,0,0,1,.124-1.067c.041-.109.077-.2.525-.2l2.933,0a5.257,5.257,0,0,0,4.014-1.359c.041-.041.079-.086.118-.131h11.031v2.246a.525.525,0,0,1-.516.518h-8.13a.816.816,0,1,0,0,1.633h7.648a9.61,9.61,0,0,1,1.192,5.045,8.86,8.86,0,0,0-13.5-1.056,8.989,8.989,0,0,0-2.567,5.574Zm21.117,5.957a5.379,5.379,0,0,1-5.226-4.322h10.452a5.379,5.379,0,0,1-5.226,4.322m6.153-5.954H139.26a7.323,7.323,0,0,1,7.225-6.574,7.245,7.245,0,0,1,6.949,5.192l.009.029a7.576,7.576,0,0,1,.269,1.352Zm7.831-16.92a1.328,1.328,0,0,1-1.325,1.327H148.469V25.3h12.1Zm0-4.523h-12.1V21.929h12.1Zm0-3.37h-12.1v-1.66a1.328,1.328,0,0,1,1.325-1.327h9.453a1.328,1.328,0,0,1,1.325,1.327Z" transform="translate(-19082 -20700)" fill="#fff"/>
  </g>
</svg>
