<svg xmlns="http://www.w3.org/2000/svg" width="48.269" height="44.077" viewBox="0 0 48.269 44.077">
  <g id="Group_3521" data-name="Group 3521" transform="translate(18940.624 20667.076)" opacity="0.36">
    <path id="Path_4411" data-name="Path 4411" d="M188.848,37.2a.91.91,0,0,0-1.014.789l-1.92,15.362h-7.085l-.936-5.309a.911.911,0,0,0-.895-.751H154.075a.911.911,0,0,0-.9.749l-.948,5.309h-7.125l-1.92-15.361a.908.908,0,1,0-1.8.227l2.02,16.157a.909.909,0,0,0,.9.8h1.621l-1.91,11.462a.909.909,0,1,0,1.793.3l1.96-11.761h4.14L149.14,70.662a.912.912,0,0,0,.365.9l.021.017a8.117,8.117,0,0,0,9.009.293,13.453,13.453,0,0,0,11.525-.023,11.824,11.824,0,0,0,5.27,1.343c.066,0,.131,0,.195,0a11.826,11.826,0,0,0,5.561-1.394l.329-.176a.909.909,0,0,0,.465-.959l-2.731-15.493h4.106l1.96,11.761a.909.909,0,1,0,1.793-.3L185.1,55.171h1.621a.909.909,0,0,0,.9-.8l2.02-16.157a.909.909,0,0,0-.791-1.016m-17.859,33.08V58.6a.909.909,0,1,0-1.818,0V70.255a11.637,11.637,0,0,1-9.8,0V62.137a.909.909,0,0,0-1.818,0v8.2a6.289,6.289,0,0,1-6.522.059l3.8-21.281h21.4l3.741,21.215a9.9,9.9,0,0,1-8.986-.045" transform="translate(-19082 -20696.191)" fill="#fff"/>
    <path id="Path_4412" data-name="Path 4412" d="M151.093,46.425h12.119a.909.909,0,0,0,.91-.908,6.978,6.978,0,0,0-6.06-6.908v-.847a.908.908,0,1,0-1.816,0v.847a6.979,6.979,0,0,0-6.06,6.908.908.908,0,0,0,.908.908m6.06-6.058a5.157,5.157,0,0,1,5.069,4.241H152.084a5.157,5.157,0,0,1,5.069-4.241" transform="translate(-19074.148 -20696.496)" fill="#fff"/>
    <path id="Path_4413" data-name="Path 4413" d="M155.9,38.666a.909.909,0,0,0,.908-.908V35.434a.908.908,0,1,0-1.816,0v2.325a.909.909,0,0,0,.908.908" transform="translate(-19069.865 -20698.572)" fill="#fff"/>
    <path id="Path_4414" data-name="Path 4414" d="M153.709,38.377a.907.907,0,0,0,.908-.908V33.834a.908.908,0,1,0-1.816,0v3.635a.908.908,0,0,0,.908.908" transform="translate(-19071.816 -20700)" fill="#fff"/>
    <path id="Path_4415" data-name="Path 4415" d="M151.682,38.849a.907.907,0,0,0,.906-.908v-1.92a.908.908,0,1,0-1.816,0v1.92a.909.909,0,0,0,.91.908" transform="translate(-19073.625 -20698.049)" fill="#fff"/>
  </g>
</svg>
