<svg xmlns="http://www.w3.org/2000/svg" width="33.883" height="52.132" viewBox="0 0 33.883 52.132">
  <g id="Group_3523" data-name="Group 3523" transform="translate(18900.583 20699.754)" opacity="0.4">
    <path id="Path_4416" data-name="Path 4416" d="M181.415,49.137a1.047,1.047,0,0,0,1.048,1.048h1.677v1.182a1.05,1.05,0,0,0,2.1,0V50.185h24.236v1.182a1.05,1.05,0,0,0,2.1,0V50.185h1.677a1.047,1.047,0,0,0,1.048-1.048V1.3A1.049,1.049,0,0,0,214.25.246H182.463a1.049,1.049,0,0,0-1.048,1.05ZM213.2,41.017h-29.69V36.062H213.2Zm0-7.051H199.4V15.881a1.049,1.049,0,0,0-2.1,0V33.966h-13.8V2.342h13.8V7.311a1.049,1.049,0,0,0,2.1,0V2.342h13.8Zm0,14.123h-29.69V43.118H213.2Z" transform="translate(-19081.998 -20700)" fill="#fff"/>
    <path id="Path_4417" data-name="Path 4417" d="M190.558,17.6a1.048,1.048,0,1,0-.566,1.367,1.056,1.056,0,0,0,.566-1.367" transform="translate(-19073.232 -20679.455)" fill="#fff"/>
    <path id="Path_4418" data-name="Path 4418" d="M188.62,21.56a1.048,1.048,0,1,0,.4-1.28,1.056,1.056,0,0,0-.4,1.28" transform="translate(-19073.232 -20675.559)" fill="#fff"/>
    <path id="Path_4419" data-name="Path 4419" d="M191.489,13.262a1.049,1.049,0,0,0,1.048-1.05V9.342a1.05,1.05,0,0,0-2.1,0v2.87a1.051,1.051,0,0,0,1.05,1.05" transform="translate(-19070.898 -20690.055)" fill="#fff"/>
    <path id="Path_4420" data-name="Path 4420" d="M187.655,8.315a1.049,1.049,0,0,0-1.048,1.05v2.87a1.05,1.05,0,0,0,2.1,0V9.365a1.051,1.051,0,0,0-1.05-1.05" transform="translate(-19075.613 -20690.074)" fill="#fff"/>
    <path id="Path_4421" data-name="Path 4421" d="M188.619,6.29a1.049,1.049,0,1,0,.569-1.369,1.06,1.06,0,0,0-.569,1.369" transform="translate(-19073.232 -20694.348)" fill="#fff"/>
  </g>
</svg>
